<?xml version="1.0" encoding="UTF-8"?>
<svg id="Capa_2" data-name="Capa 2" xmlns="http://www.w3.org/2000/svg" viewBox="0 0 75.73 75.75">
  <defs>
    <style>
      .cls-1 {
        fill: #646464;
      }

      .cls-1, .cls-2, .cls-3, .cls-4, .cls-5, .cls-6, .cls-7, .cls-8, .cls-9, .cls-10, .cls-11, .cls-12, .cls-13, .cls-14, .cls-15, .cls-16, .cls-17, .cls-18, .cls-19, .cls-20, .cls-21, .cls-22, .cls-23, .cls-24, .cls-25, .cls-26, .cls-27, .cls-28, .cls-29, .cls-30, .cls-31, .cls-32, .cls-33, .cls-34, .cls-35, .cls-36, .cls-37, .cls-38, .cls-39, .cls-40, .cls-41, .cls-42, .cls-43, .cls-44, .cls-45, .cls-46, .cls-47, .cls-48, .cls-49, .cls-50, .cls-51, .cls-52, .cls-53, .cls-54 {
        stroke-width: 0px;
      }

      .cls-2 {
        fill: #ccc;
      }

      .cls-3 {
        fill: #828282;
      }

      .cls-4 {
        fill: #3c3c3c;
      }

      .cls-5 {
        fill: #1e1e1e;
      }

      .cls-6 {
        fill: #505050;
      }

      .cls-7 {
        fill: #000;
      }

      .cls-8 {
        fill: #c8c8c8;
      }

      .cls-9 {
        fill: #7d7d7d;
      }

      .cls-10 {
        fill: #f2f2f2;
      }

      .cls-11 {
        fill: #737373;
      }

      .cls-12 {
        fill: #4b4b4b;
      }

      .cls-13 {
        fill: #282828;
      }

      .cls-14 {
        fill: #dcdcdc;
      }

      .cls-15 {
        fill: #b9b9b9;
      }

      .cls-16 {
        fill: #b4b4b4;
      }

      .cls-17 {
        fill: #9b9b9b;
      }

      .cls-18 {
        fill: #cdcdcd;
      }

      .cls-19 {
        fill: #373737;
      }

      .cls-20 {
        fill: #5a5a5a;
      }

      .cls-21 {
        fill: #f5f5f5;
      }

      .cls-22 {
        fill: #ebebeb;
      }

      .cls-23 {
        fill: #a5a5a5;
      }

      .cls-24 {
        fill: #050505;
      }

      .cls-25 {
        fill: #c3c3c3;
      }

      .cls-26 {
        fill: #6e6e6e;
      }

      .cls-27 {
        fill: #0f0f0f;
      }

      .cls-28 {
        fill: #e6e6e6;
      }

      .cls-29 {
        fill: #aaa;
      }

      .cls-30 {
        fill: #141414;
      }

      .cls-31 {
        fill: #e1e1e1;
      }

      .cls-32 {
        fill: #919191;
      }

      .cls-33 {
        fill: #555;
      }

      .cls-34 {
        fill: #d7d7d7;
      }

      .cls-35 {
        fill: #fafafa;
      }

      .cls-36 {
        fill: #3e3747;
      }

      .cls-37 {
        fill: #bebebe;
      }

      .cls-38 {
        fill: #2d2d2d;
      }

      .cls-39 {
        fill: #232323;
      }

      .cls-40 {
        fill: #464646;
      }

      .cls-41 {
        fill: #8c8c8c;
      }

      .cls-42 {
        fill: #323232;
      }

      .cls-43 {
        fill: #afafaf;
      }

      .cls-44 {
        fill: #5f5f5f;
      }

      .cls-45 {
        fill: #969696;
      }

      .cls-46 {
        fill: #d2d2d2;
      }

      .cls-47 {
        fill: #787878;
      }

      .cls-48 {
        fill: #696969;
      }

      .cls-49 {
        fill: #a0a0a0;
      }

      .cls-50 {
        fill: #f0f0f0;
      }

      .cls-51 {
        fill: #191919;
      }

      .cls-52 {
        fill: #878787;
      }

      .cls-53 {
        fill: #0a0a0a;
      }

      .cls-54 {
        fill: #414141;
      }
    </style>
  </defs>
  <g id="objects">
    <path class="cls-36" d="M75.34,38.48c.4,1.19.4,2.48-.02,3.66-.27.76-.69,1.48-1.3,2.09l-29.79,29.79c-2.18,2.18-5.72,2.18-7.9,0l-.1-.1s0,0,0,0L6.64,44.33h0l29.79,29.79c2.18,2.18,5.72,2.18,7.9,0l29.79-29.79c.61-.61,1.03-1.33,1.3-2.09.42-1.18.42-2.47.02-3.66-.07-.22-.16-.43-.27-.64-.26-.54-.6-1.06-1.05-1.51l-.1-.1c.45.45.79.97,1.05,1.51.1.21.19.42.27.64Z"/>
    <path class="cls-35" d="M73.72,36.03h0l.1.1h0l.1.1c.45.45.79.97,1.05,1.51.1.21.19.42.27.64.4,1.19.4,2.48-.02,3.66-.27.76-.69,1.48-1.3,2.09l-29.79,29.79c-2.18,2.18-5.72,2.18-7.9,0l.1.1c2.18,2.18,5.72,2.18,7.9,0l29.79-29.79c.61-.61,1.03-1.33,1.3-2.09.42-1.18.42-2.47.02-3.66-.07-.22-.16-.43-.27-.64-.26-.54-.6-1.06-1.05-1.51,0,0,0,0,0,0l-.39-.39s0,0,0,0l.1.1Z"/>
    <path class="cls-21" d="M36.23,73.92c2.18,2.18,5.72,2.18,7.9,0l29.79-29.79c.61-.61,1.03-1.33,1.3-2.09.42-1.18.42-2.47.02-3.66-.07-.22-.16-.43-.27-.64-.26-.54-.6-1.06-1.05-1.51l-.1-.1c.45.45.79.97,1.05,1.51.1.21.19.42.27.64.4,1.19.4,2.48-.02,3.66-.27.76-.69,1.48-1.3,2.09l-29.79,29.79c-2.18,2.18-5.72,2.18-7.9,0L6.44,44.13h0l.2.2,29.59,29.59s0,0,0,0Z"/>
    <path class="cls-50" d="M36.13,73.82c2.18,2.18,5.72,2.18,7.9,0l29.79-29.79c.61-.61,1.03-1.33,1.3-2.09.42-1.18.42-2.47.02-3.66-.07-.22-.16-.43-.27-.64-.26-.54-.6-1.06-1.05-1.51h0l-.1-.1c.45.45.79.97,1.05,1.51.1.21.19.42.27.64.4,1.19.4,2.48-.02,3.66-.27.76-.69,1.48-1.3,2.09l-29.79,29.79c-2.18,2.18-5.72,2.18-7.9,0L6.34,44.03h0l.1.1,29.69,29.69Z"/>
    <path class="cls-22" d="M36.03,73.72c2.18,2.18,5.72,2.18,7.9,0l29.79-29.79c.61-.61,1.03-1.33,1.3-2.09.42-1.18.42-2.47.02-3.66-.07-.22-.16-.43-.27-.64-.26-.54-.6-1.06-1.05-1.51h0l-.1-.1c.45.45.79.97,1.05,1.51.1.21.19.42.27.64.4,1.19.4,2.48-.02,3.66-.27.76-.69,1.48-1.3,2.09l-29.79,29.79c-2.18,2.18-5.72,2.18-7.9,0l-.1-.1h0S6.24,43.94,6.24,43.94h0l.1.1,29.69,29.69Z"/>
    <path class="cls-28" d="M73.23,35.54l.1.1h0l.1.1h0l.1.1c.45.45.79.97,1.05,1.51.1.21.19.42.27.64.4,1.19.4,2.48-.02,3.66-.27.76-.69,1.48-1.3,2.09l-29.79,29.79c-2.18,2.18-5.72,2.18-7.9,0l.1.1c2.18,2.18,5.72,2.18,7.9,0l29.79-29.79c.61-.61,1.03-1.33,1.3-2.09.42-1.18.42-2.47.02-3.66-.07-.22-.16-.43-.27-.64-.26-.54-.6-1.06-1.05-1.51,0,0,0,0,0,0h0l-.39-.39s0,0,0,0Z"/>
    <path class="cls-31" d="M35.84,73.53h0c2.18,2.18,5.72,2.18,7.9,0l29.79-29.79c.61-.61,1.03-1.33,1.3-2.09.42-1.18.42-2.47.02-3.66-.07-.22-.16-.43-.27-.64-.26-.54-.6-1.06-1.05-1.51l-.1-.1c.45.45.79.97,1.05,1.51.1.21.19.42.27.64.4,1.19.4,2.48-.02,3.66-.27.76-.69,1.48-1.3,2.09l-29.79,29.79c-2.18,2.18-5.72,2.18-7.9,0L6.05,43.74h0l.2.2,29.59,29.59Z"/>
    <path class="cls-14" d="M35.74,73.43c2.18,2.18,5.72,2.18,7.9,0l29.79-29.79c.61-.61,1.03-1.33,1.3-2.09.42-1.18.42-2.47.02-3.66-.07-.22-.16-.43-.27-.64-.26-.54-.6-1.06-1.05-1.51h0l-.1-.1c.45.45.79.97,1.05,1.51.1.21.19.42.27.64.4,1.19.4,2.48-.02,3.66-.27.76-.69,1.48-1.3,2.09l-29.79,29.79c-2.18,2.18-5.72,2.18-7.9,0L5.95,43.64h0l.1.1,29.69,29.69Z"/>
    <path class="cls-34" d="M35.64,73.33c2.18,2.18,5.72,2.18,7.9,0l29.79-29.79c.61-.61,1.03-1.33,1.3-2.09.42-1.18.42-2.47.02-3.66-.07-.22-.16-.43-.27-.64-.26-.54-.6-1.06-1.05-1.51h0l-.1-.1c.45.45.79.97,1.05,1.51.1.21.19.42.27.64.4,1.19.4,2.48-.02,3.66-.27.76-.69,1.48-1.3,2.09l-29.79,29.79c-2.18,2.18-5.72,2.18-7.9,0l-.1-.1s0,0,0,0L5.85,43.54h0l.1.1,29.69,29.69Z"/>
    <path class="cls-46" d="M72.94,35.25l.1.1h0l.1.1c.45.45.79.97,1.05,1.51.1.21.19.42.27.64.4,1.19.4,2.48-.02,3.66-.27.76-.69,1.48-1.3,2.09l-29.79,29.79c-2.18,2.18-5.72,2.18-7.9,0l.1.1c2.18,2.18,5.72,2.18,7.9,0l29.79-29.79c.61-.61,1.03-1.33,1.3-2.09.42-1.18.42-2.47.02-3.66-.07-.22-.16-.43-.27-.64-.26-.54-.6-1.06-1.05-1.51,0,0,0,0,0,0h0l-.29-.29s0,0,0,0Z"/>
    <path class="cls-18" d="M35.44,73.13s0,0,0,0c2.18,2.18,5.72,2.18,7.9,0l29.79-29.79c.61-.61,1.03-1.33,1.3-2.09.42-1.18.42-2.47.02-3.66-.07-.22-.16-.43-.27-.64-.26-.54-.6-1.06-1.05-1.51l-.1-.1c.45.45.79.97,1.05,1.51.1.21.19.42.27.64.4,1.19.4,2.48-.02,3.66-.27.76-.69,1.48-1.3,2.09l-29.79,29.79c-2.18,2.18-5.72,2.18-7.9,0L5.66,43.35h0l.2.2,29.59,29.59Z"/>
    <path class="cls-8" d="M35.35,73.04c2.18,2.18,5.72,2.18,7.9,0l29.79-29.79c.61-.61,1.03-1.33,1.3-2.09.42-1.18.42-2.47.02-3.66-.07-.22-.16-.43-.27-.64-.26-.54-.6-1.06-1.05-1.51h0l-.1-.1c.45.45.79.97,1.05,1.51.1.21.19.42.27.64.4,1.19.4,2.48-.02,3.66-.27.76-.69,1.48-1.3,2.09l-29.79,29.79c-2.18,2.18-5.72,2.18-7.9,0l-.1-.1s0,0,0,0L5.56,43.25h0l.1.1,29.69,29.69Z"/>
    <path class="cls-25" d="M72.55,34.86l.1.1h0l.1.1h0l.1.1c.45.45.79.97,1.05,1.51.1.21.19.42.27.64.4,1.19.4,2.48-.02,3.66-.27.76-.69,1.48-1.3,2.09l-29.79,29.79c-2.18,2.18-5.72,2.18-7.9,0l.1.1c2.18,2.18,5.72,2.18,7.9,0l29.79-29.79c.61-.61,1.03-1.33,1.3-2.09.42-1.18.42-2.47.02-3.66-.07-.22-.16-.43-.27-.64-.26-.54-.6-1.06-1.05-1.51,0,0,0,0,0,0h0l-.39-.39s0,0,0,0Z"/>
    <path class="cls-37" d="M35.15,72.84s0,0,0,0c2.18,2.18,5.72,2.18,7.9,0l29.79-29.79c.61-.61,1.03-1.33,1.3-2.09.42-1.18.42-2.47.02-3.66-.07-.22-.16-.43-.27-.64-.26-.54-.6-1.06-1.05-1.51l-.1-.1c.45.45.79.97,1.05,1.51.1.21.19.42.27.64.4,1.19.4,2.48-.02,3.66-.27.76-.69,1.48-1.3,2.09l-29.79,29.79c-2.18,2.18-5.72,2.18-7.9,0L5.36,43.05h0l.2.2,29.59,29.59Z"/>
    <path class="cls-15" d="M35.05,72.74c2.18,2.18,5.72,2.18,7.9,0l29.79-29.79c.61-.61,1.03-1.33,1.3-2.09.42-1.18.42-2.47.02-3.66-.07-.22-.16-.43-.27-.64-.26-.54-.6-1.06-1.05-1.51h0l-.1-.1c.45.45.79.97,1.05,1.51.1.21.19.42.27.64.4,1.19.4,2.48-.02,3.66-.27.76-.69,1.48-1.3,2.09l-29.79,29.79c-2.18,2.18-5.72,2.18-7.9,0L5.26,42.96h0l.1.1,29.69,29.69Z"/>
    <path class="cls-16" d="M34.95,72.64c2.18,2.18,5.72,2.18,7.9,0l29.79-29.79c.61-.61,1.03-1.33,1.3-2.09.42-1.18.42-2.47.02-3.66-.07-.22-.16-.43-.27-.64-.26-.54-.6-1.06-1.05-1.51h0l-.1-.1c.45.45.79.97,1.05,1.51.1.21.19.42.27.64.4,1.19.4,2.48-.02,3.66-.27.76-.69,1.48-1.3,2.09l-29.79,29.79c-2.18,2.18-5.72,2.18-7.9,0l-.1-.1s0,0,0,0L5.17,42.86h0l.1.1,29.69,29.69Z"/>
    <path class="cls-43" d="M72.15,34.46l.1.1h0l.1.1h0l.1.1c.45.45.79.97,1.05,1.51.1.21.19.42.27.64.4,1.19.4,2.48-.02,3.66-.27.76-.69,1.48-1.3,2.09l-29.79,29.79c-2.18,2.18-5.72,2.18-7.9,0l.1.1c2.18,2.18,5.72,2.18,7.9,0l29.79-29.79c.61-.61,1.03-1.33,1.3-2.09.42-1.18.42-2.47.02-3.66-.07-.22-.16-.43-.27-.64-.26-.54-.6-1.06-1.05-1.51,0,0,0,0,0,0h0l-.39-.39s0,0,0,0Z"/>
    <path class="cls-29" d="M34.76,72.45s0,0,0,0c2.18,2.18,5.72,2.18,7.9,0l29.79-29.79c.61-.61,1.03-1.33,1.3-2.09.42-1.18.42-2.47.02-3.66-.07-.22-.16-.43-.27-.64-.26-.54-.6-1.06-1.05-1.51l-.1-.1c.45.45.79.97,1.05,1.51.1.21.19.42.27.64.4,1.19.4,2.48-.02,3.66-.27.76-.69,1.48-1.3,2.09l-29.79,29.79c-2.18,2.18-5.72,2.18-7.9,0L4.97,42.66h0l.2.2,29.59,29.59Z"/>
    <path class="cls-23" d="M34.66,72.35c2.18,2.18,5.72,2.18,7.9,0l29.79-29.79c.61-.61,1.03-1.33,1.3-2.09.42-1.18.42-2.47.02-3.66-.07-.22-.16-.43-.27-.64-.26-.54-.6-1.06-1.05-1.51h0l-.1-.1c.45.45.79.97,1.05,1.51.1.21.19.42.27.64.4,1.19.4,2.48-.02,3.66-.27.76-.69,1.48-1.3,2.09l-29.79,29.79c-2.18,2.18-5.72,2.18-7.9,0L4.87,42.56h0l.1.1,29.69,29.69Z"/>
    <path class="cls-49" d="M34.56,72.25c2.18,2.18,5.72,2.18,7.9,0l29.79-29.79c.61-.61,1.03-1.33,1.3-2.09.42-1.18.42-2.47.02-3.66-.07-.22-.16-.43-.27-.64-.26-.54-.6-1.06-1.05-1.51h0l-.1-.1c.45.45.79.97,1.05,1.51.1.21.19.42.27.64.4,1.19.4,2.48-.02,3.66-.27.76-.69,1.48-1.3,2.09l-29.79,29.79c-2.18,2.18-5.72,2.18-7.9,0l-.1-.1s0,0,0,0L4.77,42.47h0l.1.1,29.69,29.69Z"/>
    <path class="cls-17" d="M71.86,34.17l.1.1h0l.1.1c.45.45.79.97,1.05,1.51.1.21.19.42.27.64.4,1.19.4,2.48-.02,3.66-.27.76-.69,1.48-1.3,2.09l-29.79,29.79c-2.18,2.18-5.72,2.18-7.9,0l.1.1c2.18,2.18,5.72,2.18,7.9,0l29.79-29.79c.61-.61,1.03-1.33,1.3-2.09.42-1.18.42-2.47.02-3.66-.07-.22-.16-.43-.27-.64-.26-.54-.6-1.06-1.05-1.51,0,0,0,0,0,0h0l-.29-.29s0,0,0,0Z"/>
    <path class="cls-45" d="M34.37,72.06s0,0,0,0c2.18,2.18,5.72,2.18,7.9,0l29.79-29.79c.61-.61,1.03-1.33,1.3-2.09.42-1.18.42-2.47.02-3.66-.07-.22-.16-.43-.27-.64-.26-.54-.6-1.06-1.05-1.51l-.1-.1c.45.45.79.97,1.05,1.51.1.21.19.42.27.64.4,1.19.4,2.48-.02,3.66-.27.76-.69,1.48-1.3,2.09l-29.79,29.79c-2.18,2.18-5.72,2.18-7.9,0L4.58,42.27h0l.2.2,29.59,29.59Z"/>
    <path class="cls-32" d="M34.27,71.96c2.18,2.18,5.72,2.18,7.9,0l29.79-29.79c.61-.61,1.03-1.33,1.3-2.09.42-1.18.42-2.47.02-3.66-.07-.22-.16-.43-.27-.64-.26-.54-.6-1.06-1.05-1.51h0l-.1-.1c.45.45.79.97,1.05,1.51.1.21.19.42.27.64.4,1.19.4,2.48-.02,3.66-.27.76-.69,1.48-1.3,2.09l-29.79,29.79c-2.18,2.18-5.72,2.18-7.9,0l-.1-.1h0S4.48,42.17,4.48,42.17h0l.1.1,29.69,29.69Z"/>
    <path class="cls-41" d="M71.47,33.78l.1.1h0l.1.1h0l.1.1c.45.45.79.97,1.05,1.51.1.21.19.42.27.64.4,1.19.4,2.48-.02,3.66-.27.76-.69,1.48-1.3,2.09l-29.79,29.79c-2.18,2.18-5.72,2.18-7.9,0l.1.1c2.18,2.18,5.72,2.18,7.9,0l29.79-29.79c.61-.61,1.03-1.33,1.3-2.09.42-1.18.42-2.47.02-3.66-.07-.22-.16-.43-.27-.64-.26-.54-.6-1.06-1.05-1.51,0,0,0,0,0,0h0l-.39-.39s0,0,0,0Z"/>
    <path class="cls-52" d="M34.07,71.76h0c2.18,2.18,5.72,2.18,7.9,0l29.79-29.79c.61-.61,1.03-1.33,1.3-2.09.42-1.18.42-2.47.02-3.66-.07-.22-.16-.43-.27-.64-.26-.54-.6-1.06-1.05-1.51l-.1-.1c.45.45.79.97,1.05,1.51.1.21.19.42.27.64.4,1.19.4,2.48-.02,3.66-.27.76-.69,1.48-1.3,2.09l-29.79,29.79c-2.18,2.18-5.72,2.18-7.9,0L4.28,41.98h0l.2.2,29.59,29.59Z"/>
    <path class="cls-3" d="M33.97,71.66c2.18,2.18,5.72,2.18,7.9,0l29.79-29.79c.61-.61,1.03-1.33,1.3-2.09.42-1.18.42-2.47.02-3.66-.07-.22-.16-.43-.27-.64-.26-.54-.6-1.06-1.05-1.51h0l-.1-.1c.45.45.79.97,1.05,1.51.1.21.19.42.27.64.4,1.19.4,2.48-.02,3.66-.27.76-.69,1.48-1.3,2.09l-29.79,29.79c-2.18,2.18-5.72,2.18-7.9,0L4.19,41.88h0l.1.1,29.69,29.69Z"/>
    <path class="cls-9" d="M33.87,71.57c2.18,2.18,5.72,2.18,7.9,0l29.79-29.79c.61-.61,1.03-1.33,1.3-2.09.42-1.18.42-2.47.02-3.66-.07-.22-.16-.43-.27-.64-.26-.54-.6-1.06-1.05-1.51h0l-.1-.1c.45.45.79.97,1.05,1.51.1.21.19.42.27.64.4,1.19.4,2.48-.02,3.66-.27.76-.69,1.48-1.3,2.09l-29.79,29.79c-2.18,2.18-5.72,2.18-7.9,0l-.1-.1s0,0,0,0L4.09,41.78h0l.1.1,29.69,29.69Z"/>
    <path class="cls-47" d="M70.78,33.09l.1.1h0l.1.1h0l.1.1h0l.1.1h0l.1.1h0l.1.1c.45.45.79.97,1.05,1.51.1.21.19.42.27.64.4,1.19.4,2.48-.02,3.66-.27.76-.69,1.48-1.3,2.09l-29.79,29.79c-2.18,2.18-5.72,2.18-7.9,0l.1.1c2.18,2.18,5.72,2.18,7.9,0l29.79-29.79c.61-.61,1.03-1.33,1.3-2.09.42-1.18.42-2.47.02-3.66-.07-.22-.16-.43-.27-.64-.26-.54-.6-1.06-1.05-1.51,0,0,0,0,0,0h0l-.69-.69s0,0,0,0Z"/>
    <path class="cls-11" d="M33.68,71.37s0,0,0,0c2.18,2.18,5.72,2.18,7.9,0l29.79-29.79c.61-.61,1.03-1.33,1.3-2.09.42-1.18.42-2.47.02-3.66-.07-.22-.16-.43-.27-.64-.26-.54-.6-1.06-1.05-1.51l-.1-.1c.45.45.79.97,1.05,1.51.1.21.19.42.27.64.4,1.19.4,2.48-.02,3.66-.27.76-.69,1.48-1.3,2.09l-29.79,29.79c-2.18,2.18-5.72,2.18-7.9,0L3.89,41.58h0l.2.2,29.59,29.59Z"/>
    <path class="cls-26" d="M33.58,71.27c2.18,2.18,5.72,2.18,7.9,0l29.79-29.79c.61-.61,1.03-1.33,1.3-2.09.42-1.18.42-2.47.02-3.66-.07-.22-.16-.43-.27-.64-.26-.54-.6-1.06-1.05-1.51h0l-.1-.1c.45.45.79.97,1.05,1.51.1.21.19.42.27.64.4,1.19.4,2.48-.02,3.66-.27.76-.69,1.48-1.3,2.09l-29.79,29.79c-2.18,2.18-5.72,2.18-7.9,0L3.79,41.48h0l.1.1,29.69,29.69Z"/>
    <path class="cls-48" d="M33.48,71.17c2.18,2.18,5.72,2.18,7.9,0l29.79-29.79c.61-.61,1.03-1.33,1.3-2.09.42-1.18.42-2.47.02-3.66-.07-.22-.16-.43-.27-.64-.26-.54-.6-1.06-1.05-1.51h0l-.1-.1c.45.45.79.97,1.05,1.51.1.21.19.42.27.64.4,1.19.4,2.48-.02,3.66-.27.76-.69,1.48-1.3,2.09l-29.79,29.79c-2.18,2.18-5.72,2.18-7.9,0L3.7,41.39h0l.1.1,29.69,29.69Z"/>
    <path class="cls-1" d="M33.38,71.08c2.18,2.18,5.72,2.18,7.9,0l29.79-29.79c.61-.61,1.03-1.33,1.3-2.09.42-1.18.42-2.47.02-3.66-.07-.22-.16-.43-.27-.64-.26-.54-.6-1.06-1.05-1.51h0l-.1-.1c.45.45.79.97,1.05,1.51.1.21.19.42.27.64.4,1.19.4,2.48-.02,3.66-.27.76-.69,1.48-1.3,2.09l-29.79,29.79c-2.18,2.18-5.72,2.18-7.9,0L3.6,41.29h0l.1.1,29.69,29.69Z"/>
    <path class="cls-44" d="M33.29,70.98c2.18,2.18,5.72,2.18,7.9,0l29.79-29.79c.61-.61,1.03-1.33,1.3-2.09.42-1.18.42-2.47.02-3.66-.07-.22-.16-.43-.27-.64-.26-.54-.6-1.06-1.05-1.51h0l-.1-.1c.45.45.79.97,1.05,1.51.1.21.19.42.27.64.4,1.19.4,2.48-.02,3.66-.27.76-.69,1.48-1.3,2.09l-29.79,29.79c-2.18,2.18-5.72,2.18-7.9,0L3.5,41.19h0l.1.1,29.69,29.69Z"/>
    <path class="cls-20" d="M33.19,70.88c2.18,2.18,5.72,2.18,7.9,0l29.79-29.79c.61-.61,1.03-1.33,1.3-2.09.42-1.18.42-2.47.02-3.66-.07-.22-.16-.43-.27-.64-.26-.54-.6-1.06-1.05-1.51h0l-.1-.1c.45.45.79.97,1.05,1.51.1.21.19.42.27.64.4,1.19.4,2.48-.02,3.66-.27.76-.69,1.48-1.3,2.09l-29.79,29.79c-2.18,2.18-5.72,2.18-7.9,0l-.1-.1s0,0,0,0L3.4,41.09h0l.1.1,29.69,29.69Z"/>
    <path class="cls-33" d="M70.39,32.7l.1.1h0l.1.1h0l.1.1c.45.45.79.97,1.05,1.51.1.21.19.42.27.64.4,1.19.4,2.48-.02,3.66-.27.76-.69,1.48-1.3,2.09l-29.79,29.79c-2.18,2.18-5.72,2.18-7.9,0l.1.1c2.18,2.18,5.72,2.18,7.9,0l29.79-29.79c.61-.61,1.03-1.33,1.3-2.09.42-1.18.42-2.47.02-3.66-.07-.22-.16-.43-.27-.64-.26-.54-.6-1.06-1.05-1.51,0,0,0,0,0,0h0l-.39-.39s0,0,0,0Z"/>
    <path class="cls-6" d="M32.99,70.68s0,0,0,0c2.18,2.18,5.72,2.18,7.9,0l29.79-29.79c.61-.61,1.03-1.33,1.3-2.09.42-1.18.42-2.47.02-3.66-.07-.22-.16-.43-.27-.64-.26-.54-.6-1.06-1.05-1.51l-.1-.1c.45.45.79.97,1.05,1.51.1.21.19.42.27.64.4,1.19.4,2.48-.02,3.66-.27.76-.69,1.48-1.3,2.09l-29.79,29.79c-2.18,2.18-5.72,2.18-7.9,0L3.21,40.9h0l.2.2,29.59,29.59Z"/>
    <path class="cls-12" d="M32.89,70.59c2.18,2.18,5.72,2.18,7.9,0l29.79-29.79c.61-.61,1.03-1.33,1.3-2.09.42-1.18.42-2.47.02-3.66-.07-.22-.16-.43-.27-.64-.26-.54-.6-1.06-1.05-1.51h0l-.1-.1c.45.45.79.97,1.05,1.51.1.21.19.42.27.64.4,1.19.4,2.48-.02,3.66-.27.76-.69,1.48-1.3,2.09l-29.79,29.79c-2.18,2.18-5.72,2.18-7.9,0L3.11,40.8h0l.1.1,29.69,29.69Z"/>
    <path class="cls-40" d="M32.8,70.49c2.18,2.18,5.72,2.18,7.9,0l29.79-29.79c.61-.61,1.03-1.33,1.3-2.09.42-1.18.42-2.47.02-3.66-.07-.22-.16-.43-.27-.64-.26-.54-.6-1.06-1.05-1.51h0l-.1-.1c.45.45.79.97,1.05,1.51.1.21.19.42.27.64.4,1.19.4,2.48-.02,3.66-.27.76-.69,1.48-1.3,2.09l-29.79,29.79c-2.18,2.18-5.72,2.18-7.9,0l-.1-.1s0,0,0,0L3.01,40.7h0l.1.1,29.69,29.69Z"/>
    <path class="cls-54" d="M70.1,32.4l.1.1h0l.1.1c.45.45.79.97,1.05,1.51.1.21.19.42.27.64.4,1.19.4,2.48-.02,3.66-.27.76-.69,1.48-1.3,2.09l-29.79,29.79c-2.18,2.18-5.72,2.18-7.9,0l.1.1c2.18,2.18,5.72,2.18,7.9,0l29.79-29.79c.61-.61,1.03-1.33,1.3-2.09.42-1.18.42-2.47.02-3.66-.07-.22-.16-.43-.27-.64-.26-.54-.6-1.06-1.05-1.51,0,0,0,0,0,0h0l-.29-.29s0,0,0,0Z"/>
    <path class="cls-4" d="M32.6,70.29s0,0,0,0c2.18,2.18,5.72,2.18,7.9,0l29.79-29.79c.61-.61,1.03-1.33,1.3-2.09.42-1.18.42-2.47.02-3.66-.07-.22-.16-.43-.27-.64-.26-.54-.6-1.06-1.05-1.51l-.1-.1c.45.45.79.97,1.05,1.51.1.21.19.42.27.64.4,1.19.4,2.48-.02,3.66-.27.76-.69,1.48-1.3,2.09l-29.79,29.79c-2.18,2.18-5.72,2.18-7.9,0L2.81,40.5h0l.2.2,29.59,29.59Z"/>
    <path class="cls-19" d="M32.5,70.19c2.18,2.18,5.72,2.18,7.9,0l29.79-29.79c.61-.61,1.03-1.33,1.3-2.09.42-1.18.42-2.47.02-3.66-.07-.22-.16-.43-.27-.64-.26-.54-.6-1.06-1.05-1.51h0l-.1-.1c.45.45.79.97,1.05,1.51.1.21.19.42.27.64.4,1.19.4,2.48-.02,3.66-.27.76-.69,1.48-1.3,2.09l-29.79,29.79c-2.18,2.18-5.72,2.18-7.9,0l-.1-.1s0,0,0,0L2.72,40.41h0l.1.1,29.69,29.69Z"/>
    <path class="cls-42" d="M69.7,32.01l.1.1h0l.1.1h0l.1.1c.45.45.79.97,1.05,1.51.1.21.19.42.27.64.4,1.19.4,2.48-.02,3.66-.27.76-.69,1.48-1.3,2.09l-29.79,29.79c-2.18,2.18-5.72,2.18-7.9,0l.1.1c2.18,2.18,5.72,2.18,7.9,0l29.79-29.79c.61-.61,1.03-1.33,1.3-2.09.42-1.18.42-2.47.02-3.66-.07-.22-.16-.43-.27-.64-.26-.54-.6-1.06-1.05-1.51,0,0,0,0,0,0h0l-.39-.39s0,0,0,0Z"/>
    <path class="cls-38" d="M32.31,70s0,0,0,0c2.18,2.18,5.72,2.18,7.9,0l29.79-29.79c.61-.61,1.03-1.33,1.3-2.09.42-1.18.42-2.47.02-3.66-.07-.22-.16-.43-.27-.64-.26-.54-.6-1.06-1.05-1.51l-.1-.1c.45.45.79.97,1.05,1.51.1.21.19.42.27.64.4,1.19.4,2.48-.02,3.66-.27.76-.69,1.48-1.3,2.09l-29.79,29.79c-2.18,2.18-5.72,2.18-7.9,0L2.52,40.21h0l.2.2,29.59,29.59Z"/>
    <path class="cls-13" d="M32.21,69.9c2.18,2.18,5.72,2.18,7.9,0l29.79-29.79c.61-.61,1.03-1.33,1.3-2.09.42-1.18.42-2.47.02-3.66-.07-.22-.16-.43-.27-.64-.26-.54-.6-1.06-1.05-1.51h0l-.1-.1c.45.45.79.97,1.05,1.51.1.21.19.42.27.64.4,1.19.4,2.48-.02,3.66-.27.76-.69,1.48-1.3,2.09l-29.79,29.79c-2.18,2.18-5.72,2.18-7.9,0L2.42,40.11h0l.1.1,29.69,29.69Z"/>
    <path class="cls-39" d="M32.11,69.8c2.18,2.18,5.72,2.18,7.9,0l29.79-29.79c.61-.61,1.03-1.33,1.3-2.09.42-1.18.42-2.47.02-3.66-.07-.22-.16-.43-.27-.64-.26-.54-.6-1.06-1.05-1.51h0l-.1-.1c.45.45.79.97,1.05,1.51.1.21.19.42.27.64.4,1.19.4,2.48-.02,3.66-.27.76-.69,1.48-1.3,2.09l-29.79,29.79c-2.18,2.18-5.72,2.18-7.9,0l-.1-.1s0,0,0,0L2.32,40.01h0l.1.1,29.69,29.69Z"/>
    <path class="cls-5" d="M69.31,31.62l.1.1h0l.1.1h0l.1.1c.45.45.79.97,1.05,1.51.1.21.19.42.27.64.4,1.19.4,2.48-.02,3.66-.27.76-.69,1.48-1.3,2.09l-29.79,29.79c-2.18,2.18-5.72,2.18-7.9,0l.1.1c2.18,2.18,5.72,2.18,7.9,0l29.79-29.79c.61-.61,1.03-1.33,1.3-2.09.42-1.18.42-2.47.02-3.66-.07-.22-.16-.43-.27-.64-.26-.54-.6-1.06-1.05-1.51,0,0,0,0,0,0h0l-.39-.39s0,0,0,0Z"/>
    <path class="cls-51" d="M31.91,69.61s0,0,0,0c2.18,2.18,5.72,2.18,7.9,0l29.79-29.79c.61-.61,1.03-1.33,1.3-2.09.42-1.18.42-2.47.02-3.66-.07-.22-.16-.43-.27-.64-.26-.54-.6-1.06-1.05-1.51l-.1-.1c.45.45.79.97,1.05,1.51.1.21.19.42.27.64.4,1.19.4,2.48-.02,3.66-.27.76-.69,1.48-1.3,2.09l-29.79,29.79c-2.18,2.18-5.72,2.18-7.9,0L2.13,39.82h0l.2.2,29.59,29.59Z"/>
    <path class="cls-30" d="M31.82,69.51c2.18,2.18,5.72,2.18,7.9,0l29.79-29.79c.61-.61,1.03-1.33,1.3-2.09.42-1.18.42-2.47.02-3.66-.07-.22-.16-.43-.27-.64-.26-.54-.6-1.06-1.05-1.51h0l-.1-.1c.45.45.79.97,1.05,1.51.1.21.19.42.27.64.4,1.19.4,2.48-.02,3.66-.27.76-.69,1.48-1.3,2.09l-29.79,29.79c-2.18,2.18-5.72,2.18-7.9,0L2.03,39.72h0l.1.1,29.69,29.69Z"/>
    <path class="cls-27" d="M31.72,69.41c2.18,2.18,5.72,2.18,7.9,0l29.79-29.79c.61-.61,1.03-1.33,1.3-2.09.42-1.18.42-2.47.02-3.66-.07-.22-.16-.43-.27-.64-.26-.54-.6-1.06-1.05-1.51h0l-.1-.1c.45.45.79.97,1.05,1.51.1.21.19.42.27.64.4,1.19.4,2.48-.02,3.66-.27.76-.69,1.48-1.3,2.09l-29.79,29.79c-2.18,2.18-5.72,2.18-7.9,0l-.1-.1s0,0,0,0L1.93,39.62h0l.1.1,29.69,29.69Z"/>
    <path class="cls-53" d="M39.72,2.03l.1.1.2.2.1.1.1.1.2.2.1.1.2.2.1.1.1.1.2.2.1.1.1.1.1.1.1.1.1.1.2.2.1.1.1.1.2.2.1.1.2.2.1.1.1.1.2.2.1.1.1.1.2.2.1.1.2.2.1.1.1.1.2.2.1.1.1.1.2.2,13.02,13.02,11.77,11.77h0l.1.1c.45.45.79.97,1.05,1.51.1.21.19.42.27.64.4,1.19.4,2.48-.02,3.66-.27.76-.69,1.48-1.3,2.09l-29.79,29.79c-2.18,2.18-5.72,2.18-7.9,0l.1.1c2.18,2.18,5.72,2.18,7.9,0l29.79-29.79c.61-.61,1.03-1.33,1.3-2.09.42-1.18.42-2.47.02-3.66-.07-.22-.16-.43-.27-.64-.26-.54-.6-1.06-1.05-1.51,0,0,0,0,0,0h0l-11.77-11.77-13.31-13.31-.39-.39-.39-.39-.29-.29-.39-.39-.39-.39-.29-.29-.39-.39-.69-.69-.39-.39-.29-.29-.39-.39-.39-.39s0,0,0,0l.1.1.1.1Z"/>
    <path class="cls-24" d="M31.52,69.21s0,0,0,0c2.18,2.18,5.72,2.18,7.9,0l29.79-29.79c.61-.61,1.03-1.33,1.3-2.09.42-1.18.42-2.47.02-3.66-.07-.22-.16-.43-.27-.64-.26-.54-.6-1.06-1.05-1.51l-.1-.1c.45.45.79.97,1.05,1.51.1.21.19.42.27.64.4,1.19.4,2.48-.02,3.66-.27.76-.69,1.48-1.3,2.09l-29.79,29.79c-2.18,2.18-5.72,2.18-7.9,0L1.74,39.43h0l.2.2,29.59,29.59Z"/>
    <path class="cls-7" d="M1.74,39.43l29.69,29.69c2.18,2.18,5.72,2.18,7.9,0l29.79-29.79c.61-.61,1.03-1.33,1.3-2.09.42-1.18.42-2.47.02-3.66-.07-.22-.16-.43-.27-.64-.26-.54-.6-1.06-1.05-1.51h0l-11.77-11.77-13.02-13.02-.2-.2-.1-.1-.1-.1-.2-.2-.1-.1-.1-.1-.2-.2-.1-.1-.2-.2-.1-.1-.1-.1-.2-.2-.1-.1-.1-.1-.2-.2-.1-.1-.2-.2-.1-.1-.1-.1-.2-.2-.1-.1-.1-.1-.1-.1-.1-.1-.1-.1-.2-.2-.1-.1-.1-.1-.2-.2-.1-.1-.2-.2-.1-.1-.1-.1-.2-.2-.1-.1-.1-.1-.1-.1-.1-.1-.1-.1c-2.18-2.18-5.72-2.18-7.9,0L1.64,31.42c-2.18,2.18-2.18,5.72,0,7.9l.1.1Z"/>
    <rect class="cls-10" x="8.74" y="8.72" width="53.3" height="53.3" rx="5.59" ry="5.59" transform="translate(35.38 -14.66) rotate(45)"/>
    <path class="cls-2" d="M69.13,31.42l-11.77-11.77c-1.73-1.73-4.52-1.73-6.25,0l-31.44,31.44c-1.73,1.73-1.73,4.52,0,6.25l11.77,11.77c2.18,2.18,5.72,2.18,7.9,0l29.79-29.79c2.18-2.18,2.18-5.72,0-7.9Z"/>
    <path class="cls-36" d="M42.32,35.37h-4.41v16.07h-6.02v-16.07h-4.01v-5.53h4.01s0-3.26,0-3.26c0-4.53,1.23-7.27,6.55-7.27h4.44v5.54h-2.77c-2.06,0-2.18.78-2.18,2.21v2.77h4.99l-.59,5.54Z"/>
  </g>
</svg>