<?xml version="1.0" encoding="UTF-8"?>
<svg id="Capa_2" data-name="Capa 2" xmlns="http://www.w3.org/2000/svg" viewBox="0 0 2555.11 1431.17">
  <defs>
    <style>
      .cls-1 {
        letter-spacing: -.01em;
      }

      .cls-2 {
        letter-spacing: -.04em;
      }

      .cls-3 {
        letter-spacing: -.08em;
      }

      .cls-4 {
        font-family: AquireBold, Aquire;
        font-size: 250.33px;
      }

      .cls-4, .cls-5 {
        fill: #fff;
      }

      .cls-6 {
        letter-spacing: -.07em;
      }

      .cls-5 {
        stroke-width: 0px;
      }

      .cls-7 {
        letter-spacing: -.02em;
      }

      .cls-8 {
        letter-spacing: -.23em;
      }
    </style>
  </defs>
  <g id="Layer_3" data-name="Layer 3">
    <g id="text">
      <text class="cls-4" transform="translate(0 1431.17)"><tspan x="0" y="0">C</tspan><tspan class="cls-2" x="190.25" y="0">r</tspan><tspan class="cls-7" x="364.23" y="0">e</tspan><tspan class="cls-8" x="531.45" y="0">a</tspan><tspan x="690.66" y="0">ti</tspan><tspan class="cls-3" x="924.72" y="0">v</tspan><tspan x="1120.73" y="0">o Y </tspan><tspan class="cls-1" x="1717" y="0">P</tspan><tspan x="1874.71" y="0">UN</tspan><tspan class="cls-6" x="2207.65" y="0">T</tspan><tspan x="2365.11" y="0">O</tspan></text>
      <circle class="cls-5" cx="1215.36" cy="1342.84" r="65.66"/>
      <circle class="cls-5" cx="2460.73" cy="1346.31" r="75.66"/>
    </g>
    <g id="C">
      <path class="cls-5" d="M1548.18,699.91c.82-1.67,1.69-3.31,2.61-4.92,1.46-2.61,3.05-5.16,4.76-7.62,18.44-26.86,49.38-44.47,84.42-44.47,56.55,0,102.39,45.84,102.39,102.39,0,18.73-5.03,36.3-13.83,51.4-.12.23-.26.46-.4.68-3.87,6.55-8.46,12.63-13.65,18.13-92.32,117.81-235.93,193.51-397.21,193.51-278.56,0-504.38-225.82-504.38-504.38S1038.71.25,1317.27.25c160.87,0,304.15,75.31,396.5,192.6,5.51,5.73,10.36,12.1,14.43,18.99.28.47.56.95.82,1.43,8.5,14.91,13.34,32.16,13.34,50.55,0,56.54-45.84,102.38-102.39,102.38-35.34,0-66.5-17.91-84.89-45.14-.01-.03-.02-.05-.04-.07-1.49-2.2-2.89-4.45-4.19-6.76-.79-1.39-1.55-2.8-2.27-4.23-65.67-107.56-184.15-179.35-319.39-179.35-206.55,0-373.98,167.44-373.98,373.98s167.43,373.98,373.98,373.98c134.97,0,253.24-71.51,318.99-178.7Z"/>
      <path class="cls-5" d="M1336.21,438.16c-28.18-89.23-111.62-153.92-210.17-153.92-121.72,0-220.39,98.67-220.39,220.39s98.67,220.38,220.39,220.38c98.54,0,181.98-64.68,210.17-153.91,6.63-20.97,10.21-43.3,10.21-66.47s-3.57-45.5-10.21-66.47Z"/>
    </g>
  </g>
</svg>