<?xml version="1.0" encoding="UTF-8"?>
<svg id="Capa_2" data-name="Capa 2" xmlns="http://www.w3.org/2000/svg" viewBox="0 0 1190.93 1009.27">
  <defs>
    <style>
      .cls-1 {
        fill: #fff;
        stroke-width: 0px;
      }
    </style>
  </defs>
  <g id="Layer_3" data-name="Layer 3">
    <g id="C">
      <path class="cls-1" d="M735.54,699.91c.82-1.67,1.69-3.31,2.61-4.92,1.46-2.61,3.05-5.16,4.76-7.62,18.44-26.86,49.38-44.47,84.42-44.47,56.55,0,102.39,45.84,102.39,102.39,0,18.73-5.03,36.3-13.83,51.4-.12.23-.26.46-.4.68-3.87,6.55-8.46,12.63-13.65,18.13-92.32,117.81-235.93,193.51-397.21,193.51C226.07,1009.01.25,783.19.25,504.63S226.07.25,504.63.25c160.87,0,304.15,75.31,396.5,192.6,5.51,5.73,10.36,12.1,14.43,18.99.28.47.56.95.82,1.43,8.5,14.91,13.34,32.16,13.34,50.55,0,56.54-45.84,102.38-102.39,102.38-35.34,0-66.5-17.91-84.89-45.14-.01-.03-.02-.05-.04-.07-1.49-2.2-2.89-4.45-4.19-6.76-.79-1.39-1.55-2.8-2.27-4.23-65.67-107.56-184.15-179.35-319.39-179.35-206.55,0-373.98,167.44-373.98,373.98s167.43,373.98,373.98,373.98c134.97,0,253.24-71.51,318.99-178.7Z"/>
      <path class="cls-1" d="M523.57,438.16c-28.18-89.23-111.62-153.92-210.17-153.92-121.72,0-220.39,98.67-220.39,220.39s98.67,220.38,220.39,220.38c98.54,0,181.98-64.68,210.17-153.91,6.63-20.97,10.21-43.3,10.21-66.47s-3.57-45.5-10.21-66.47Z"/>
    </g>
  </g>
</svg>