<?xml version="1.0" encoding="UTF-8"?>
<svg id="Capa_2" data-name="Capa 2" xmlns="http://www.w3.org/2000/svg" viewBox="0 0 1190.93 1009.27">
  <defs>
    <style>
      .cls-1 {
        fill: #231f20;
        stroke-width: 0px;
      }
    </style>
  </defs>
  <g id="Logo_Black" data-name="Logo Black">
    <g id="C">
      <path class="cls-1" d="M523.57,438.17c-28.18-89.23-111.62-153.92-210.17-153.92-121.72,0-220.39,98.67-220.39,220.38s98.67,220.39,220.39,220.39c98.54,0,181.98-64.68,210.17-153.91,6.63-20.98,10.21-43.31,10.21-66.48s-3.57-45.49-10.21-66.46Z"/>
      <path class="cls-1" d="M735.54,699.92c.82-1.67,1.69-3.31,2.61-4.93,1.47-2.61,3.05-5.15,4.76-7.61,18.44-26.86,49.38-44.47,84.42-44.47,56.55,0,102.39,45.84,102.39,102.39,0,18.74-5.04,36.3-13.84,51.41-.12.23-.25.45-.39.67-3.87,6.55-8.45,12.62-13.64,18.12-92.33,117.81-235.93,193.52-397.22,193.52C226.07,1009.02.25,783.2.25,504.64S226.07.25,504.63.25c160.9,0,304.2,75.34,396.54,192.66,5.5,5.72,10.34,12.08,14.38,18.95.28.44.54.88.78,1.33,8.53,14.94,13.39,32.22,13.39,50.64,0,56.54-45.84,102.38-102.39,102.38-35.34,0-66.5-17.91-84.89-45.14-1.5-2.21-2.91-4.49-4.23-6.83-.81-1.42-1.58-2.86-2.32-4.32-65.68-107.51-184.13-179.26-319.34-179.26-206.55,0-373.98,167.43-373.98,373.98s167.43,373.98,373.98,373.98c134.97,0,253.24-71.5,318.99-178.7Z"/>
    </g>
  </g>
</svg>