<?xml version="1.0" encoding="UTF-8"?>
<svg id="Capa_2" data-name="Capa 2" xmlns="http://www.w3.org/2000/svg" viewBox="0 0 75.75 75.74">
  <defs>
    <style>
      .cls-1 {
        fill: #646464;
      }

      .cls-1, .cls-2, .cls-3, .cls-4, .cls-5, .cls-6, .cls-7, .cls-8, .cls-9, .cls-10, .cls-11, .cls-12, .cls-13, .cls-14, .cls-15, .cls-16, .cls-17, .cls-18, .cls-19, .cls-20, .cls-21, .cls-22, .cls-23, .cls-24, .cls-25, .cls-26, .cls-27, .cls-28, .cls-29, .cls-30, .cls-31, .cls-32, .cls-33, .cls-34, .cls-35, .cls-36, .cls-37, .cls-38, .cls-39, .cls-40, .cls-41, .cls-42, .cls-43, .cls-44, .cls-45, .cls-46, .cls-47, .cls-48, .cls-49, .cls-50, .cls-51, .cls-52, .cls-53, .cls-54 {
        stroke-width: 0px;
      }

      .cls-2 {
        fill: #ccc;
      }

      .cls-3 {
        fill: #828282;
      }

      .cls-4 {
        fill: #3c3c3c;
      }

      .cls-5 {
        fill: #1e1e1e;
      }

      .cls-6 {
        fill: #505050;
      }

      .cls-7 {
        fill: #000;
      }

      .cls-8 {
        fill: #c8c8c8;
      }

      .cls-9 {
        fill: #7d7d7d;
      }

      .cls-10 {
        fill: #f2f2f2;
      }

      .cls-11 {
        fill: #737373;
      }

      .cls-12 {
        fill: #4b4b4b;
      }

      .cls-13 {
        fill: #282828;
      }

      .cls-14 {
        fill: #dcdcdc;
      }

      .cls-15 {
        fill: #b9b9b9;
      }

      .cls-16 {
        fill: #b4b4b4;
      }

      .cls-17 {
        fill: #9b9b9b;
      }

      .cls-18 {
        fill: #cdcdcd;
      }

      .cls-19 {
        fill: #373737;
      }

      .cls-20 {
        fill: #5a5a5a;
      }

      .cls-21 {
        fill: #f5f5f5;
      }

      .cls-22 {
        fill: #ebebeb;
      }

      .cls-23 {
        fill: #a5a5a5;
      }

      .cls-24 {
        fill: #050505;
      }

      .cls-25 {
        fill: #c3c3c3;
      }

      .cls-26 {
        fill: #6e6e6e;
      }

      .cls-27 {
        fill: #0f0f0f;
      }

      .cls-28 {
        fill: #e6e6e6;
      }

      .cls-29 {
        fill: #aaa;
      }

      .cls-30 {
        fill: #141414;
      }

      .cls-31 {
        fill: #e1e1e1;
      }

      .cls-32 {
        fill: #919191;
      }

      .cls-33 {
        fill: #555;
      }

      .cls-34 {
        fill: #d7d7d7;
      }

      .cls-35 {
        fill: #fafafa;
      }

      .cls-36 {
        fill: #3e3747;
      }

      .cls-37 {
        fill: #bebebe;
      }

      .cls-38 {
        fill: #2d2d2d;
      }

      .cls-39 {
        fill: #232323;
      }

      .cls-40 {
        fill: #464646;
      }

      .cls-41 {
        fill: #8c8c8c;
      }

      .cls-42 {
        fill: #323232;
      }

      .cls-43 {
        fill: #afafaf;
      }

      .cls-44 {
        fill: #5f5f5f;
      }

      .cls-45 {
        fill: #969696;
      }

      .cls-46 {
        fill: #d2d2d2;
      }

      .cls-47 {
        fill: #787878;
      }

      .cls-48 {
        fill: #696969;
      }

      .cls-49 {
        fill: #a0a0a0;
      }

      .cls-50 {
        fill: #f0f0f0;
      }

      .cls-51 {
        fill: #191919;
      }

      .cls-52 {
        fill: #878787;
      }

      .cls-53 {
        fill: #0a0a0a;
      }

      .cls-54 {
        fill: #414141;
      }
    </style>
  </defs>
  <g id="objects">
    <path class="cls-36" d="M74.11,36.42l-.1-.1c.27.27.51.57.72.88.61.93.92,2,.92,3.08,0,1.43-.55,2.86-1.64,3.95l-29.79,29.79c-.55.55-1.18.95-1.85,1.23-1.25.51-2.63.52-3.9.09-.44-.15-.88-.34-1.28-.6-.31-.2-.6-.44-.88-.72l-.1-.1s0,0,0,0l.2.2c.27.27.57.51.88.72.4.27.84.45,1.28.6,1.27.43,2.65.41,3.9-.09.67-.27,1.3-.68,1.85-1.23l29.79-29.79c1.09-1.09,1.64-2.52,1.64-3.95,0-1.07-.31-2.15-.92-3.08-.2-.31-.44-.6-.72-.88Z"/>
    <path class="cls-35" d="M73.72,36.03h0l.1.1h0l.1.1c.27.27.51.57.72.88.61.93.92,2,.92,3.08,0,1.43-.55,2.86-1.64,3.95l-29.79,29.79c-.55.55-1.18.95-1.85,1.23-1.25.51-2.63.52-3.9.09-.44-.15-.88-.34-1.28-.6-.31-.2-.6-.44-.88-.72l.1.1c.27.27.57.51.88.72.4.27.84.45,1.28.6,1.27.43,2.65.41,3.9-.09.67-.27,1.3-.68,1.85-1.23l29.79-29.79c1.09-1.09,1.64-2.52,1.64-3.95,0-1.07-.31-2.15-.92-3.08-.2-.31-.44-.6-.72-.88,0,0,0,0,0,0l-.39-.39s0,0,0,0l.1.1Z"/>
    <path class="cls-21" d="M37.1,74.63c.4.27.84.45,1.28.6,1.27.43,2.65.41,3.9-.09.67-.27,1.3-.68,1.85-1.23l29.79-29.79c1.09-1.09,1.64-2.52,1.64-3.95,0-1.07-.31-2.15-.92-3.08-.2-.31-.44-.6-.72-.88l-.1-.1c.27.27.51.57.72.88.61.93.92,2,.92,3.08,0,1.43-.55,2.86-1.64,3.95l-29.79,29.79c-.55.55-1.18.95-1.85,1.23-1.25.51-2.63.52-3.9.09-.44-.15-.88-.34-1.28-.6-.31-.2-.6-.44-.88-.72l.1.1s0,0,0,0c.27.27.57.51.88.72Z"/>
    <path class="cls-50" d="M37.01,74.54c.4.27.84.45,1.28.6,1.27.43,2.65.41,3.9-.09.67-.27,1.3-.68,1.85-1.23l29.79-29.79c1.09-1.09,1.64-2.52,1.64-3.95,0-1.07-.31-2.15-.92-3.08-.2-.31-.44-.6-.72-.88h0l-.1-.1c.27.27.51.57.72.88.61.93.92,2,.92,3.08,0,1.43-.55,2.86-1.64,3.95l-29.79,29.79c-.55.55-1.18.95-1.85,1.23-1.25.51-2.63.52-3.9.09-.44-.15-.88-.34-1.28-.6-.31-.2-.6-.44-.88-.72l.1.1c.27.27.57.51.88.72Z"/>
    <path class="cls-22" d="M36.91,74.44c.4.27.84.45,1.28.6,1.27.43,2.65.41,3.9-.09.67-.27,1.3-.68,1.85-1.23l29.79-29.79c1.09-1.09,1.64-2.52,1.64-3.95,0-1.07-.31-2.15-.92-3.08-.2-.31-.44-.6-.72-.88h0l-.1-.1c.27.27.51.57.72.88.61.93.92,2,.92,3.08,0,1.43-.55,2.86-1.64,3.95l-29.79,29.79c-.55.55-1.18.95-1.85,1.23-1.25.51-2.63.52-3.9.09-.44-.15-.88-.34-1.28-.6-.31-.2-.6-.44-.88-.72l-.1-.1s0,0,0,0l.2.2c.27.27.57.51.88.72Z"/>
    <path class="cls-28" d="M73.23,35.54l.1.1h0l.1.1h0l.1.1c.27.27.51.57.72.88.61.93.92,2,.92,3.08,0,1.43-.55,2.86-1.64,3.95l-29.79,29.79c-.55.55-1.18.95-1.85,1.23-1.25.51-2.63.52-3.9.09-.44-.15-.88-.34-1.28-.6-.31-.2-.6-.44-.88-.72l.1.1c.27.27.57.51.88.72.4.27.84.45,1.28.6,1.27.43,2.65.41,3.9-.09.67-.27,1.3-.68,1.85-1.23l29.79-29.79c1.09-1.09,1.64-2.52,1.64-3.95,0-1.07-.31-2.15-.92-3.08-.2-.31-.44-.6-.72-.88t0,0h0l-.39-.39s0,0,0,0Z"/>
    <path class="cls-31" d="M36.71,74.24c.4.27.84.45,1.28.6,1.27.43,2.65.41,3.9-.09.67-.27,1.3-.68,1.85-1.23l29.79-29.79c1.09-1.09,1.64-2.52,1.64-3.95,0-1.07-.31-2.15-.92-3.08-.2-.31-.44-.6-.72-.88l-.1-.1c.27.27.51.57.72.88.61.93.92,2,.92,3.08,0,1.43-.55,2.86-1.64,3.95l-29.79,29.79c-.55.55-1.18.95-1.85,1.23-1.25.51-2.63.52-3.9.09-.44-.15-.88-.34-1.28-.6-.31-.2-.6-.44-.88-.72l.1.1s0,0,0,0c.27.27.57.51.88.72Z"/>
    <path class="cls-14" d="M36.61,74.14c.4.27.84.45,1.28.6,1.27.43,2.65.41,3.9-.09.67-.27,1.3-.68,1.85-1.23l29.79-29.79c1.09-1.09,1.64-2.52,1.64-3.95,0-1.07-.31-2.15-.92-3.08-.2-.31-.44-.6-.72-.88h0l-.1-.1c.27.27.51.57.72.88.61.93.92,2,.92,3.08,0,1.43-.55,2.86-1.64,3.95l-29.79,29.79c-.55.55-1.18.95-1.85,1.23-1.25.51-2.63.52-3.9.09-.44-.15-.88-.34-1.28-.6-.31-.2-.6-.44-.88-.72l.1.1c.27.27.57.51.88.72Z"/>
    <path class="cls-34" d="M36.52,74.05c.4.27.84.45,1.28.6,1.27.43,2.65.41,3.9-.09.67-.27,1.3-.68,1.85-1.23l29.79-29.79c1.09-1.09,1.64-2.52,1.64-3.95,0-1.07-.31-2.15-.92-3.08-.2-.31-.44-.6-.72-.88h0l-.1-.1c.27.27.51.57.72.88.61.93.92,2,.92,3.08,0,1.43-.55,2.86-1.64,3.95l-29.79,29.79c-.55.55-1.18.95-1.85,1.23-1.25.51-2.63.52-3.9.09-.44-.15-.88-.34-1.28-.6-.31-.2-.6-.44-.88-.72l-.1-.1s0,0,0,0l.2.2c.27.27.57.51.88.72Z"/>
    <path class="cls-46" d="M72.94,35.25l.1.1h0l.1.1c.27.27.51.57.72.88.61.93.92,2,.92,3.08,0,1.43-.55,2.86-1.64,3.95l-29.79,29.79c-.55.55-1.18.95-1.85,1.23-1.25.51-2.63.52-3.9.09-.44-.15-.88-.34-1.28-.6-.31-.2-.6-.44-.88-.72l.1.1c.27.27.57.51.88.72.4.27.84.45,1.28.6,1.27.43,2.65.41,3.9-.09.67-.27,1.3-.68,1.85-1.23l29.79-29.79c1.09-1.09,1.64-2.52,1.64-3.95,0-1.07-.31-2.15-.92-3.08-.2-.31-.44-.6-.72-.88,0,0,0,0,0,0h0l-.29-.29s0,0,0,0Z"/>
    <path class="cls-18" d="M36.32,73.85c.4.27.84.45,1.28.6,1.27.43,2.65.41,3.9-.09.67-.27,1.3-.68,1.85-1.23l29.79-29.79c1.09-1.09,1.64-2.52,1.64-3.95,0-1.07-.31-2.15-.92-3.08-.2-.31-.44-.6-.72-.88l-.1-.1c.27.27.51.57.72.88.61.93.92,2,.92,3.08,0,1.43-.55,2.86-1.64,3.95l-29.79,29.79c-.55.55-1.18.95-1.85,1.23-1.25.51-2.63.52-3.9.09-.44-.15-.88-.34-1.28-.6-.31-.2-.6-.44-.88-.72l.1.1s0,0,0,0c.27.27.57.51.88.72Z"/>
    <path class="cls-8" d="M36.22,73.75c.4.27.84.45,1.28.6,1.27.43,2.65.41,3.9-.09.67-.27,1.3-.68,1.85-1.23l29.79-29.79c1.09-1.09,1.64-2.52,1.64-3.95,0-1.07-.31-2.15-.92-3.08-.2-.31-.44-.6-.72-.88h0l-.1-.1c.27.27.51.57.72.88.61.93.92,2,.92,3.08,0,1.43-.55,2.86-1.64,3.95l-29.79,29.79c-.55.55-1.18.95-1.85,1.23-1.25.51-2.63.52-3.9.09-.44-.15-.88-.34-1.28-.6-.31-.2-.6-.44-.88-.72l-.1-.1s0,0,0,0l.2.2c.27.27.57.51.88.72Z"/>
    <path class="cls-25" d="M72.55,34.86l.1.1h0l.1.1h0l.1.1c.27.27.51.57.72.88.61.93.92,2,.92,3.08,0,1.43-.55,2.86-1.64,3.95l-29.79,29.79c-.55.55-1.18.95-1.85,1.23-1.25.51-2.63.52-3.9.09-.44-.15-.88-.34-1.28-.6-.31-.2-.6-.44-.88-.72l.1.1c.27.27.57.51.88.72.4.27.84.45,1.28.6,1.27.43,2.65.41,3.9-.09.67-.27,1.3-.68,1.85-1.23l29.79-29.79c1.09-1.09,1.64-2.52,1.64-3.95,0-1.07-.31-2.15-.92-3.08-.2-.31-.44-.6-.72-.88t0,0h0l-.39-.39s0,0,0,0Z"/>
    <path class="cls-37" d="M36.03,73.56c.4.27.84.45,1.28.6,1.27.43,2.65.41,3.9-.09.67-.27,1.3-.68,1.85-1.23l29.79-29.79c1.09-1.09,1.64-2.52,1.64-3.95,0-1.07-.31-2.15-.92-3.08-.2-.31-.44-.6-.72-.88l-.1-.1c.27.27.51.57.72.88.61.93.92,2,.92,3.08,0,1.43-.55,2.86-1.64,3.95l-29.79,29.79c-.55.55-1.18.95-1.85,1.23-1.25.51-2.63.52-3.9.09-.44-.15-.88-.34-1.28-.6-.31-.2-.6-.44-.88-.72l.1.1s0,0,0,0c.27.27.57.51.88.72Z"/>
    <path class="cls-15" d="M35.93,73.46c.4.27.84.45,1.28.6,1.27.43,2.65.41,3.9-.09.67-.27,1.3-.68,1.85-1.23l29.79-29.79c1.09-1.09,1.64-2.52,1.64-3.95,0-1.07-.31-2.15-.92-3.08-.2-.31-.44-.6-.72-.88h0l-.1-.1c.27.27.51.57.72.88.61.93.92,2,.92,3.08,0,1.43-.55,2.86-1.64,3.95l-29.79,29.79c-.55.55-1.18.95-1.85,1.23-1.25.51-2.63.52-3.9.09-.44-.15-.88-.34-1.28-.6-.31-.2-.6-.44-.88-.72l.1.1c.27.27.57.51.88.72Z"/>
    <path class="cls-16" d="M35.83,73.36c.4.27.84.45,1.28.6,1.27.43,2.65.41,3.9-.09.67-.27,1.3-.68,1.85-1.23l29.79-29.79c1.09-1.09,1.64-2.52,1.64-3.95,0-1.07-.31-2.15-.92-3.08-.2-.31-.44-.6-.72-.88h0l-.1-.1c.27.27.51.57.72.88.61.93.92,2,.92,3.08,0,1.43-.55,2.86-1.64,3.95l-29.79,29.79c-.55.55-1.18.95-1.85,1.23-1.25.51-2.63.52-3.9.09-.44-.15-.88-.34-1.28-.6-.31-.2-.6-.44-.88-.72l-.1-.1s0,0,0,0l.2.2c.27.27.57.51.88.72Z"/>
    <path class="cls-43" d="M72.15,34.46l.1.1h0l.1.1h0l.1.1c.27.27.51.57.72.88.61.93.92,2,.92,3.08,0,1.43-.55,2.86-1.64,3.95l-29.79,29.79c-.55.55-1.18.95-1.85,1.23-1.25.51-2.63.52-3.9.09-.44-.15-.88-.34-1.28-.6-.31-.2-.6-.44-.88-.72l.1.1c.27.27.57.51.88.72.4.27.84.45,1.28.6,1.27.43,2.65.41,3.9-.09.67-.27,1.3-.68,1.85-1.23l29.79-29.79c1.09-1.09,1.64-2.52,1.64-3.95,0-1.07-.31-2.15-.92-3.08-.2-.31-.44-.6-.72-.88,0,0,0,0,0,0h0l-.39-.39s0,0,0,0Z"/>
    <path class="cls-29" d="M35.63,73.16c.4.27.84.45,1.28.6,1.27.43,2.65.41,3.9-.09.67-.27,1.3-.68,1.85-1.23l29.79-29.79c1.09-1.09,1.64-2.52,1.64-3.95,0-1.07-.31-2.15-.92-3.08-.2-.31-.44-.6-.72-.88l-.1-.1c.27.27.51.57.72.88.61.93.92,2,.92,3.08,0,1.43-.55,2.86-1.64,3.95l-29.79,29.79c-.55.55-1.18.95-1.85,1.23-1.25.51-2.63.52-3.9.09-.44-.15-.88-.34-1.28-.6-.31-.2-.6-.44-.88-.72l.1.1s0,0,0,0c.27.27.57.51.88.72Z"/>
    <path class="cls-23" d="M35.54,73.07c.4.27.84.45,1.28.6,1.27.43,2.65.41,3.9-.09.67-.27,1.3-.68,1.85-1.23l29.79-29.79c1.09-1.09,1.64-2.52,1.64-3.95,0-1.07-.31-2.15-.92-3.08-.2-.31-.44-.6-.72-.88h0l-.1-.1c.27.27.51.57.72.88.61.93.92,2,.92,3.08,0,1.43-.55,2.86-1.64,3.95l-29.79,29.79c-.55.55-1.18.96-1.85,1.23-1.25.51-2.63.52-3.9.09-.44-.15-.88-.34-1.28-.6-.31-.2-.6-.44-.88-.72l.1.1c.27.27.57.51.88.72Z"/>
    <path class="cls-49" d="M35.44,72.97c.4.27.84.45,1.28.6,1.27.43,2.65.41,3.9-.09.67-.27,1.3-.68,1.85-1.23l29.79-29.79c1.09-1.09,1.64-2.52,1.64-3.95,0-1.07-.31-2.15-.92-3.08-.2-.31-.44-.6-.72-.88h0l-.1-.1c.27.27.51.57.72.88.61.93.92,2,.92,3.08,0,1.43-.55,2.86-1.64,3.95l-29.79,29.79c-.55.55-1.18.95-1.85,1.23-1.25.51-2.63.52-3.9.09-.44-.15-.88-.34-1.28-.6-.31-.2-.6-.44-.88-.72l-.1-.1h0s.2.2.2.2c.27.27.57.51.88.72Z"/>
    <path class="cls-17" d="M71.86,34.17l.1.1h0l.1.1c.27.27.51.57.72.88.61.93.92,2,.92,3.08,0,1.43-.55,2.86-1.64,3.95l-29.79,29.79c-.55.55-1.18.95-1.85,1.23-1.25.51-2.63.52-3.9.09-.44-.15-.88-.34-1.28-.6-.31-.2-.6-.44-.88-.72l.1.1c.27.27.57.51.88.72.4.27.84.45,1.28.6,1.27.43,2.65.41,3.9-.09.67-.27,1.3-.68,1.85-1.23l29.79-29.79c1.09-1.09,1.64-2.52,1.64-3.95,0-1.07-.31-2.15-.92-3.08-.2-.31-.44-.6-.72-.88t0,0h0l-.29-.29s0,0,0,0Z"/>
    <path class="cls-45" d="M35.24,72.77c.4.27.84.45,1.28.6,1.27.43,2.65.41,3.9-.09.67-.27,1.3-.68,1.85-1.23l29.79-29.79c1.09-1.09,1.64-2.52,1.64-3.95,0-1.07-.31-2.15-.92-3.08-.2-.31-.44-.6-.72-.88l-.1-.1c.27.27.51.57.72.88.61.93.92,2,.92,3.08,0,1.43-.55,2.86-1.64,3.95l-29.79,29.79c-.55.55-1.18.95-1.85,1.23-1.25.51-2.63.52-3.9.09-.44-.15-.88-.34-1.28-.6-.31-.2-.6-.44-.88-.72l.1.1h0c.27.27.57.51.88.72Z"/>
    <path class="cls-32" d="M35.14,72.67c.4.27.84.45,1.28.6,1.27.43,2.65.41,3.9-.09.67-.27,1.3-.68,1.85-1.23l29.79-29.79c1.09-1.09,1.64-2.52,1.64-3.95,0-1.07-.31-2.15-.92-3.08-.2-.31-.44-.6-.72-.88h0l-.1-.1c.27.27.51.57.72.88.61.93.92,2,.92,3.08,0,1.43-.55,2.86-1.64,3.95l-29.79,29.79c-.55.55-1.18.95-1.85,1.23-1.25.51-2.63.52-3.9.09-.44-.15-.88-.34-1.28-.6-.31-.2-.6-.44-.88-.72l-.1-.1s0,0,0,0l.2.2c.27.27.57.51.88.72Z"/>
    <path class="cls-41" d="M71.47,33.78l.1.1h0l.1.1h0l.1.1c.27.27.51.57.72.88.61.93.92,2,.92,3.08,0,1.43-.55,2.86-1.64,3.95l-29.79,29.79c-.55.55-1.18.95-1.85,1.23-1.25.51-2.63.52-3.9.09-.44-.15-.88-.34-1.28-.6-.31-.2-.6-.44-.88-.72l.1.1c.27.27.57.51.88.72.4.27.84.45,1.28.6,1.27.43,2.65.41,3.9-.09.67-.27,1.3-.68,1.85-1.23l29.79-29.79c1.09-1.09,1.64-2.52,1.64-3.95,0-1.07-.31-2.15-.92-3.08-.2-.31-.44-.6-.72-.88t0,0h0l-.39-.39s0,0,0,0Z"/>
    <path class="cls-52" d="M34.95,72.48c.4.27.84.45,1.28.6,1.27.43,2.65.41,3.9-.09.67-.27,1.3-.68,1.85-1.23l29.79-29.79c1.09-1.09,1.64-2.52,1.64-3.95,0-1.07-.31-2.15-.92-3.08-.2-.31-.44-.6-.72-.88l-.1-.1c.27.27.51.57.72.88.61.93.92,2,.92,3.08,0,1.43-.55,2.86-1.64,3.95l-29.79,29.79c-.55.55-1.18.95-1.85,1.23-1.25.51-2.63.52-3.9.09-.44-.15-.88-.34-1.28-.6-.31-.2-.6-.44-.88-.72l.1.1s0,0,0,0c.27.27.57.51.88.72Z"/>
    <path class="cls-3" d="M34.85,72.38c.4.27.84.45,1.28.6,1.27.43,2.65.41,3.9-.09.67-.27,1.3-.68,1.85-1.23l29.79-29.79c1.09-1.09,1.64-2.52,1.64-3.95,0-1.07-.31-2.15-.92-3.08-.2-.31-.44-.6-.72-.88h0l-.1-.1c.27.27.51.57.72.88.61.93.92,2,.92,3.08,0,1.43-.55,2.86-1.64,3.95l-29.79,29.79c-.55.55-1.18.95-1.85,1.23-1.25.51-2.63.52-3.9.09-.44-.15-.88-.34-1.28-.6-.31-.2-.6-.44-.88-.72l.1.1c.27.27.57.51.88.72Z"/>
    <path class="cls-9" d="M34.75,72.28c.4.27.84.45,1.28.6,1.27.43,2.65.41,3.9-.09.67-.27,1.3-.68,1.85-1.23l29.79-29.79c1.09-1.09,1.64-2.52,1.64-3.95,0-1.07-.31-2.15-.92-3.08-.2-.31-.44-.6-.72-.88h0l-.1-.1c.27.27.51.57.72.88.61.93.92,2,.92,3.08,0,1.43-.55,2.86-1.64,3.95l-29.79,29.79c-.55.55-1.18.95-1.85,1.23-1.25.51-2.63.52-3.9.09-.44-.15-.88-.34-1.28-.6-.31-.2-.6-.44-.88-.72l-.1-.1s0,0,0,0l.2.2c.27.27.57.51.88.72Z"/>
    <path class="cls-47" d="M70.78,33.09l.1.1h0l.1.1h0l.1.1h0l.1.1h0l.1.1h0l.1.1c.27.27.51.57.72.88.61.93.92,2,.92,3.08,0,1.43-.55,2.86-1.64,3.95l-29.79,29.79c-.55.55-1.18.95-1.85,1.23-1.25.51-2.63.52-3.9.09-.44-.15-.88-.34-1.28-.6-.31-.2-.6-.44-.88-.72l.1.1c.27.27.57.51.88.72.4.27.84.45,1.28.6,1.27.43,2.65.41,3.9-.09.67-.27,1.3-.68,1.85-1.23l29.79-29.79c1.09-1.09,1.64-2.52,1.64-3.95,0-1.07-.31-2.15-.92-3.08-.2-.31-.44-.6-.72-.88,0,0,0,0,0,0h0l-.69-.69s0,0,0,0Z"/>
    <path class="cls-11" d="M34.56,72.09c.4.27.84.45,1.28.6,1.27.43,2.65.41,3.9-.09.67-.27,1.3-.68,1.85-1.23l29.79-29.79c1.09-1.09,1.64-2.52,1.64-3.95,0-1.07-.31-2.15-.92-3.08-.2-.31-.44-.6-.72-.88l-.1-.1c.27.27.51.57.72.88.61.93.92,2,.92,3.08,0,1.43-.55,2.86-1.64,3.95l-29.79,29.79c-.55.55-1.18.95-1.85,1.23-1.25.51-2.63.52-3.9.09-.44-.15-.88-.34-1.28-.6-.31-.2-.6-.44-.88-.72l.1.1s0,0,0,0c.27.27.57.51.88.72Z"/>
    <path class="cls-26" d="M34.46,71.99c.4.27.84.45,1.28.6,1.27.43,2.65.41,3.9-.09.67-.27,1.3-.68,1.85-1.23l29.79-29.79c1.09-1.09,1.64-2.52,1.64-3.95,0-1.07-.31-2.15-.92-3.08-.2-.31-.44-.6-.72-.88h0l-.1-.1c.27.27.51.57.72.88.61.93.92,2,.92,3.08,0,1.43-.55,2.86-1.64,3.95l-29.79,29.79c-.55.55-1.18.95-1.85,1.23-1.25.51-2.63.52-3.9.09-.44-.15-.88-.34-1.28-.6-.31-.2-.6-.44-.88-.72l.1.1c.27.27.57.51.88.72Z"/>
    <path class="cls-48" d="M34.36,71.89c.4.27.84.45,1.28.6,1.27.43,2.65.41,3.9-.09.67-.27,1.3-.68,1.85-1.23l29.79-29.79c1.09-1.09,1.64-2.52,1.64-3.95,0-1.07-.31-2.15-.92-3.08-.2-.31-.44-.6-.72-.88h0l-.1-.1c.27.27.51.57.72.88.61.93.92,2,.92,3.08,0,1.43-.55,2.86-1.64,3.95l-29.79,29.79c-.55.55-1.18.95-1.85,1.23-1.25.51-2.63.52-3.9.09-.44-.15-.88-.34-1.28-.6-.31-.2-.6-.44-.88-.72l.1.1c.27.27.57.51.88.72Z"/>
    <path class="cls-1" d="M34.26,71.79c.4.27.84.45,1.28.6,1.27.43,2.65.41,3.9-.09.67-.27,1.3-.68,1.85-1.23l29.79-29.79c1.09-1.09,1.64-2.52,1.64-3.95,0-1.07-.31-2.15-.92-3.08-.2-.31-.44-.6-.72-.88h0l-.1-.1c.27.27.51.57.72.88.61.93.92,2,.92,3.08,0,1.43-.55,2.86-1.64,3.95l-29.79,29.79c-.55.55-1.18.95-1.85,1.23-1.25.51-2.63.52-3.9.09-.44-.15-.88-.34-1.28-.6-.31-.2-.6-.44-.88-.72l.1.1c.27.27.57.51.88.72Z"/>
    <path class="cls-44" d="M34.16,71.69c.4.27.84.45,1.28.6,1.27.43,2.65.41,3.9-.09.67-.27,1.3-.68,1.85-1.23l29.79-29.79c1.09-1.09,1.64-2.52,1.64-3.95,0-1.07-.31-2.15-.92-3.08-.2-.31-.44-.6-.72-.88h0l-.1-.1c.27.27.51.57.72.88.61.93.92,2,.92,3.08,0,1.43-.55,2.86-1.64,3.95l-29.79,29.79c-.55.55-1.18.95-1.85,1.23-1.25.51-2.63.52-3.9.09-.44-.15-.88-.34-1.28-.6-.31-.2-.6-.44-.88-.72l.1.1c.27.27.57.51.88.72Z"/>
    <path class="cls-20" d="M34.07,71.6c.4.27.84.45,1.28.6,1.27.43,2.65.41,3.9-.09.67-.27,1.3-.68,1.85-1.23l29.79-29.79c1.09-1.09,1.64-2.52,1.64-3.95,0-1.07-.31-2.15-.92-3.08-.2-.31-.44-.6-.72-.88h0l-.1-.1c.27.27.51.57.72.88.61.93.92,2,.92,3.08,0,1.43-.55,2.86-1.64,3.95l-29.79,29.79c-.55.55-1.18.95-1.85,1.23-1.25.51-2.63.52-3.9.09-.44-.15-.88-.34-1.28-.6-.31-.2-.6-.44-.88-.72l-.1-.1s0,0,0,0l.2.2c.27.27.57.51.88.72Z"/>
    <path class="cls-33" d="M70.39,32.7l.1.1h0l.1.1h0l.1.1c.27.27.51.57.72.88.61.93.92,2,.92,3.08,0,1.43-.55,2.86-1.64,3.95l-29.79,29.79c-.55.55-1.18.95-1.85,1.23-1.25.51-2.63.52-3.9.09-.44-.15-.88-.34-1.28-.6-.31-.2-.6-.44-.88-.72l.1.1c.27.27.57.51.88.72.4.27.84.45,1.28.6,1.27.43,2.65.41,3.9-.09.67-.27,1.3-.68,1.85-1.23l29.79-29.79c1.09-1.09,1.64-2.52,1.64-3.95,0-1.07-.31-2.15-.92-3.08-.2-.31-.44-.6-.72-.88,0,0,0,0,0,0h0l-.39-.39s0,0,0,0Z"/>
    <path class="cls-6" d="M33.87,71.4c.4.27.84.45,1.28.6,1.27.43,2.65.41,3.9-.09.67-.27,1.3-.68,1.85-1.23l29.79-29.79c1.09-1.09,1.64-2.52,1.64-3.95,0-1.07-.31-2.15-.92-3.08-.2-.31-.44-.6-.72-.88l-.1-.1c.27.27.51.57.72.88.61.93.92,2,.92,3.08,0,1.43-.55,2.86-1.64,3.95l-29.79,29.79c-.55.55-1.18.95-1.85,1.23-1.25.51-2.63.52-3.9.09-.44-.15-.88-.34-1.28-.6-.31-.2-.6-.44-.88-.72l.1.1s0,0,0,0c.27.27.57.51.88.72Z"/>
    <path class="cls-12" d="M33.77,71.3c.4.27.84.45,1.28.6,1.27.43,2.65.41,3.9-.09.67-.27,1.3-.68,1.85-1.23l29.79-29.79c1.09-1.09,1.64-2.52,1.64-3.95,0-1.07-.31-2.15-.92-3.08-.2-.31-.44-.6-.72-.88h0l-.1-.1c.27.27.51.57.72.88.61.93.92,2,.92,3.08,0,1.43-.55,2.86-1.64,3.95l-29.79,29.79c-.55.55-1.18.95-1.85,1.23-1.25.51-2.63.52-3.9.09-.44-.15-.88-.34-1.28-.6-.31-.2-.6-.44-.88-.72l.1.1c.27.27.57.51.88.72Z"/>
    <path class="cls-40" d="M33.67,71.2c.4.27.84.45,1.28.6,1.27.43,2.65.41,3.9-.09.67-.27,1.3-.68,1.85-1.23l29.79-29.79c1.09-1.09,1.64-2.52,1.64-3.95,0-1.07-.31-2.15-.92-3.08-.2-.31-.44-.6-.72-.88h0l-.1-.1c.27.27.51.57.72.88.61.93.92,2,.92,3.08,0,1.43-.55,2.86-1.64,3.95l-29.79,29.79c-.55.55-1.18.95-1.85,1.23-1.25.51-2.63.52-3.9.09-.44-.15-.88-.34-1.28-.6-.31-.2-.6-.44-.88-.72l-.1-.1h0s.2.2.2.2c.27.27.57.51.88.72Z"/>
    <path class="cls-54" d="M70.1,32.4l.1.1h0l.1.1c.27.27.51.57.72.88.61.93.92,2,.92,3.08,0,1.43-.55,2.86-1.64,3.95l-29.79,29.79c-.55.55-1.18.95-1.85,1.23-1.25.51-2.63.52-3.9.09-.44-.15-.88-.34-1.28-.6-.31-.2-.6-.44-.88-.72l.1.1c.27.27.57.51.88.72.4.27.84.45,1.28.6,1.27.43,2.65.41,3.9-.09.67-.27,1.3-.68,1.85-1.23l29.79-29.79c1.09-1.09,1.64-2.52,1.64-3.95,0-1.07-.31-2.15-.92-3.08-.2-.31-.44-.6-.72-.88t0,0h0l-.29-.29s0,0,0,0Z"/>
    <path class="cls-4" d="M33.48,71.01c.4.27.84.45,1.28.6,1.27.43,2.65.41,3.9-.09.67-.27,1.3-.68,1.85-1.23l29.79-29.79c1.09-1.09,1.64-2.52,1.64-3.95,0-1.07-.31-2.15-.92-3.08-.2-.31-.44-.6-.72-.88l-.1-.1c.27.27.51.57.72.88.61.93.92,2,.92,3.08,0,1.43-.55,2.86-1.64,3.95l-29.79,29.79c-.55.55-1.18.95-1.85,1.23-1.25.51-2.63.52-3.9.09-.44-.15-.88-.34-1.28-.6-.31-.2-.6-.44-.88-.72l.1.1h0c.27.27.57.51.88.72Z"/>
    <path class="cls-19" d="M33.38,70.91c.4.27.84.45,1.28.6,1.27.43,2.65.41,3.9-.09.67-.27,1.3-.68,1.85-1.23l29.79-29.79c1.09-1.09,1.64-2.52,1.64-3.95,0-1.07-.31-2.15-.92-3.08-.2-.31-.44-.6-.72-.88h0l-.1-.1c.27.27.51.57.72.88.61.93.92,2,.92,3.08,0,1.43-.55,2.86-1.64,3.95l-29.79,29.79c-.55.55-1.18.95-1.85,1.23-1.25.51-2.63.52-3.9.09-.44-.15-.88-.34-1.28-.6-.31-.2-.6-.44-.88-.72l-.1-.1s0,0,0,0l.2.2c.27.27.57.51.88.72Z"/>
    <path class="cls-42" d="M69.7,32.01l.1.1h0l.1.1h0l.1.1c.27.27.51.57.72.88.61.93.92,2,.92,3.08,0,1.43-.55,2.86-1.64,3.95l-29.79,29.79c-.55.55-1.18.95-1.85,1.23-1.25.51-2.63.52-3.9.09-.44-.15-.88-.34-1.28-.6-.31-.2-.6-.44-.88-.72l.1.1c.27.27.57.51.88.72.4.27.84.45,1.28.6,1.27.43,2.65.41,3.9-.09.67-.27,1.3-.68,1.85-1.23l29.79-29.79c1.09-1.09,1.64-2.52,1.64-3.95,0-1.07-.31-2.15-.92-3.08-.2-.31-.44-.6-.72-.88,0,0,0,0,0,0h0l-.39-.39s0,0,0,0Z"/>
    <path class="cls-38" d="M33.18,70.71c.4.27.84.45,1.28.6,1.27.43,2.65.41,3.9-.09.67-.27,1.3-.68,1.85-1.23l29.79-29.79c1.09-1.09,1.64-2.52,1.64-3.95,0-1.07-.31-2.15-.92-3.08-.2-.31-.44-.6-.72-.88l-.1-.1c.27.27.51.57.72.88.61.93.92,2,.92,3.08,0,1.43-.55,2.86-1.64,3.95l-29.79,29.79c-.55.55-1.18.95-1.85,1.23-1.25.51-2.63.52-3.9.09-.44-.15-.88-.34-1.28-.6-.31-.2-.6-.44-.88-.72l.1.1s0,0,0,0c.27.27.57.51.88.72Z"/>
    <path class="cls-13" d="M33.08,70.62c.4.27.84.45,1.28.6,1.27.43,2.65.41,3.9-.09.67-.27,1.3-.68,1.85-1.23l29.79-29.79c1.09-1.09,1.64-2.52,1.64-3.95,0-1.07-.31-2.15-.92-3.08-.2-.31-.44-.6-.72-.88h0l-.1-.1c.27.27.51.57.72.88.61.93.92,2,.92,3.08,0,1.43-.55,2.86-1.64,3.95l-29.79,29.79c-.55.55-1.18.95-1.85,1.23-1.25.51-2.63.52-3.9.09-.44-.15-.88-.34-1.28-.6-.31-.2-.6-.44-.88-.72l.1.1c.27.27.57.51.88.72Z"/>
    <path class="cls-39" d="M32.99,70.52c.4.27.84.45,1.28.6,1.27.43,2.65.41,3.9-.09.67-.27,1.3-.68,1.85-1.23l29.79-29.79c1.09-1.09,1.64-2.52,1.64-3.95,0-1.07-.31-2.15-.92-3.08-.2-.31-.44-.6-.72-.88h0l-.1-.1c.27.27.51.57.72.88.61.93.92,2,.92,3.08,0,1.43-.55,2.86-1.64,3.95l-29.79,29.79c-.55.55-1.18.95-1.85,1.23-1.25.51-2.63.52-3.9.09-.44-.15-.88-.34-1.28-.6-.31-.2-.6-.44-.88-.72l-.1-.1s0,0,0,0l.2.2c.27.27.57.51.88.72Z"/>
    <path class="cls-5" d="M69.31,31.62l.1.1h0l.1.1h0l.1.1c.27.27.51.57.72.88.61.93.92,2,.92,3.08,0,1.43-.55,2.86-1.64,3.95l-29.79,29.79c-.55.55-1.18.95-1.85,1.23-1.25.51-2.63.52-3.9.09-.44-.15-.88-.34-1.28-.6-.31-.2-.6-.44-.88-.72l.1.1c.27.27.57.51.88.72.4.27.84.45,1.28.6,1.27.43,2.65.41,3.9-.09.67-.27,1.3-.68,1.85-1.23l29.79-29.79c1.09-1.09,1.64-2.52,1.64-3.95,0-1.07-.31-2.15-.92-3.08-.2-.31-.44-.6-.72-.88,0,0,0,0,0,0h0l-.39-.39s0,0,0,0Z"/>
    <path class="cls-51" d="M32.79,70.32c.4.27.84.45,1.28.6,1.27.43,2.65.41,3.9-.09.67-.27,1.3-.68,1.85-1.23l29.79-29.79c1.09-1.09,1.64-2.52,1.64-3.95,0-1.07-.31-2.15-.92-3.08-.2-.31-.44-.6-.72-.88l-.1-.1c.27.27.51.57.72.88.61.93.92,2,.92,3.08,0,1.43-.55,2.86-1.64,3.95l-29.79,29.79c-.55.55-1.18.95-1.85,1.23-1.25.51-2.63.52-3.9.09-.44-.15-.88-.34-1.28-.6-.31-.2-.6-.44-.88-.72l.1.1s0,0,0,0c.27.27.57.51.88.72Z"/>
    <path class="cls-30" d="M32.69,70.22c.4.27.84.45,1.28.6,1.27.43,2.65.41,3.9-.09.67-.27,1.3-.68,1.85-1.23l29.79-29.79c1.09-1.09,1.64-2.52,1.64-3.95,0-1.07-.31-2.15-.92-3.08-.2-.31-.44-.6-.72-.88h0l-.1-.1c.27.27.51.57.72.88.61.93.92,2,.92,3.08,0,1.43-.55,2.86-1.64,3.95l-29.79,29.79c-.55.55-1.18.95-1.85,1.23-1.25.51-2.63.52-3.9.09-.44-.15-.88-.34-1.28-.6-.31-.2-.6-.44-.88-.72l.1.1c.27.27.57.51.88.72Z"/>
    <path class="cls-27" d="M32.59,70.13c.4.27.84.45,1.28.6,1.27.43,2.65.41,3.9-.09.67-.27,1.3-.68,1.85-1.23l29.79-29.79c1.09-1.09,1.64-2.52,1.64-3.95,0-1.07-.31-2.15-.92-3.08-.2-.31-.44-.6-.72-.88h0l-.1-.1c.27.27.51.57.72.88.61.93.92,2,.92,3.08,0,1.43-.55,2.86-1.64,3.95l-29.79,29.79c-.55.55-1.18.95-1.85,1.23-1.25.51-2.63.52-3.9.09-.44-.15-.88-.34-1.28-.6-.31-.2-.6-.44-.88-.72l-.1-.1s0,0,0,0l.2.2c.27.27.57.51.88.72Z"/>
    <path class="cls-53" d="M69.11,31.42h0l.1.1c.27.27.51.57.72.88.61.93.92,2,.92,3.08,0,1.43-.55,2.86-1.64,3.95l-29.79,29.79c-.55.55-1.18.95-1.85,1.23-1.25.51-2.63.52-3.9.09-.44-.15-.88-.34-1.28-.6-.31-.2-.6-.44-.88-.72l.1.1c.27.27.57.51.88.72.4.27.84.45,1.28.6,1.27.43,2.65.41,3.9-.09.67-.27,1.3-.68,1.85-1.23l29.79-29.79c1.09-1.09,1.64-2.52,1.64-3.95,0-1.07-.31-2.15-.92-3.08-.2-.31-.44-.6-.72-.88,0,0,0,0,0,0h0L39.52,1.83s0,0,0,0l29.59,29.59Z"/>
    <path class="cls-24" d="M32.4,69.93c.4.27.84.45,1.28.6,1.27.43,2.65.41,3.9-.09.67-.27,1.3-.68,1.85-1.23l29.79-29.79c1.09-1.09,1.64-2.52,1.64-3.95,0-1.07-.31-2.15-.92-3.08-.2-.31-.44-.6-.72-.88l-.1-.1c.27.27.51.57.72.88.61.93.92,2,.92,3.08,0,1.43-.55,2.86-1.64,3.95l-29.79,29.79c-.55.55-1.18.95-1.85,1.23-1.25.51-2.63.52-3.9.09-.44-.15-.88-.34-1.28-.6-.31-.2-.6-.44-.88-.72l.1.1s0,0,0,0c.27.27.57.51.88.72Z"/>
    <path class="cls-7" d="M32.3,69.83c.4.27.84.45,1.28.6,1.27.43,2.65.41,3.9-.09.67-.27,1.3-.68,1.85-1.23l29.79-29.79c1.09-1.09,1.64-2.52,1.64-3.95,0-1.07-.31-2.15-.92-3.08-.2-.31-.44-.6-.72-.88h0L39.52,1.83l-.2-.2c-2.18-2.18-5.72-2.18-7.9,0L1.64,31.42c-2.18,2.18-2.18,5.72,0,7.9l.1.1.2.2.1.1.1.1.2.2.1.1.1.1.2.2.1.1.2.2.1.1.1.1.2.2.1.1.1.1.1.1.1.1.1.1.2.2.1.1.1.1.2.2.1.1.2.2.1.1.1.1.2.2.1.1.1.1.2.2.1.1.2.2.1.1.1.1.2.2.1.1.1.1.2.2,24.79,24.79c.27.27.57.51.88.72Z"/>
    <rect class="cls-10" x="8.74" y="8.72" width="53.3" height="53.3" rx="5.59" ry="5.59" transform="translate(35.38 -14.66) rotate(45)"/>
    <path class="cls-2" d="M69.13,31.42l-11.77-11.77c-1.73-1.73-4.52-1.73-6.25,0l-31.44,31.44c-1.73,1.73-1.73,4.52,0,6.25l11.77,11.77c2.18,2.18,5.72,2.18,7.9,0l29.79-29.79c2.18-2.18,2.18-5.72,0-7.9Z"/>
    <path class="cls-36" d="M36.43,19.63c-7.94,0-14.4,6.46-14.4,14.4,0,2.69.74,5.29,2.14,7.55l-2.14,7.47,7.5-2.38c2.11,1.15,4.48,1.76,6.9,1.76,7.94,0,14.4-6.46,14.4-14.4s-6.46-14.4-14.4-14.4ZM36.43,46.01c-2.17,0-4.29-.58-6.14-1.69l-.47-.28-4.23,1.35,1.21-4.21-.31-.47c-1.33-1.98-2.04-4.29-2.04-6.69,0-6.61,5.38-11.99,11.99-11.99s11.99,5.38,11.99,11.99-5.38,11.99-11.99,11.99Z"/>
    <path class="cls-36" d="M39.6,35.76c-.91.91-.91,1.81-1.81,1.81s-1.81-.91-2.72-1.81c-.9-.91-1.81-1.81-1.81-2.72s.91-.91,1.81-1.81c.91-.9-1.81-3.62-2.72-3.62s-2.72,2.72-2.72,2.72c0,1.81,1.86,5.48,3.62,7.25,1.76,1.76,5.43,3.62,7.25,3.62,0,0,2.72-1.81,2.72-2.72s-2.72-3.62-3.62-2.72Z"/>
  </g>
</svg>